# xmcd
#
# Track frame offsets:
#	150
#	16435
#	28635
#	40585
#	51995
#	63139
#	76340
#	95677
#	107225
#	121997
#	136660
#	147020
#	159412
#	172717
#
# Disc length: 2495
#
# Revision: 1
# Processed by: cddbd v1.5.1PL0 Copyright (c) Steve Scherf et al.
# Submitted via: dBpowerAMP V4.0
# Normalized: r0:DSETVAR1,TDELIM( - )
#
DISCID=a809bd0e
DTITLE=Various Artist - Een Knusse Kerst
DYEAR=1994
DGENRE=Christmas
TTITLE0=Mud - Lonely this Christmas
TTITLE1=Jerry Butler - Silent Night
TTITLE2=Caines Bishop - The Christmas Song
TTITLE3=Rosemary Clooney - The Little Drummer Boy
TTITLE4=The Platters - Come home for Christmas
TTITLE5=Harry Belafonte - Hallelujah, I love her so
TTITLE6=Mahaliah Jackson - What child is this
TTITLE7=Sam Cooke - God bless the Child
TTITLE8=Frank Sinatra - That old Feeling
TTITLE9=Kenny Rogers - All God's lonely childeren
TTITLE10=Gene Autry - Sleigh Bells
TTITLE11=The Cranberry Singers - Wonderfull Christmas Time
TTITLE12=Trini Lopez - El Condor Pasa
TTITLE13=The Impressions - Amen
EXTD=
EXTT0=
EXTT1=
EXTT2=
EXTT3=
EXTT4=
EXTT5=
EXTT6=
EXTT7=
EXTT8=
EXTT9=
EXTT10=
EXTT11=
EXTT12=
EXTT13=
PLAYORDER=
